<?xml version="1.0" encoding="UTF-8"?>
<svg xmlns="http://www.w3.org/2000/svg" viewBox="0 0 1200 920" font-family="Inter, Segoe UI, Helvetica Neue, Arial, sans-serif">
  <defs>
    <filter id="shadow" x="-3%" y="-3%" width="106%" height="106%">
      <feDropShadow dx="0" dy="2" stdDeviation="4" flood-opacity="0.10"/>
    </filter>
    <filter id="shadowLight" x="-2%" y="-2%" width="104%" height="104%">
      <feDropShadow dx="0" dy="1" stdDeviation="2" flood-opacity="0.06"/>
    </filter>
    <marker id="arrowBlue" markerWidth="10" markerHeight="7" refX="9" refY="3.5" orient="auto">
      <polygon points="0 0, 10 3.5, 0 7" fill="#1565C0"/>
    </marker>
    <marker id="arrowGreen" markerWidth="10" markerHeight="7" refX="9" refY="3.5" orient="auto">
      <polygon points="0 0, 10 3.5, 0 7" fill="#2E7D32"/>
    </marker>
    <marker id="arrowPurple" markerWidth="10" markerHeight="7" refX="9" refY="3.5" orient="auto">
      <polygon points="0 0, 10 3.5, 0 7" fill="#6A1B9A"/>
    </marker>

    <linearGradient id="bgGrad" x1="0%" y1="0%" x2="0%" y2="100%">
      <stop offset="0%" stop-color="#FAFBFC"/>
      <stop offset="100%" stop-color="#F0F2F5"/>
    </linearGradient>
    <linearGradient id="clusterGrad" x1="0%" y1="0%" x2="100%" y2="100%">
      <stop offset="0%" stop-color="#FFFFFF"/>
      <stop offset="100%" stop-color="#F8F9FA"/>
    </linearGradient>
    <linearGradient id="devGrad" x1="0%" y1="0%" x2="0%" y2="100%">
      <stop offset="0%" stop-color="#0288D1"/>
      <stop offset="100%" stop-color="#01579B"/>
    </linearGradient>
    <linearGradient id="extGrad" x1="0%" y1="0%" x2="0%" y2="100%">
      <stop offset="0%" stop-color="#26A69A"/>
      <stop offset="100%" stop-color="#00796B"/>
    </linearGradient>
    <linearGradient id="gwGrad" x1="0%" y1="0%" x2="0%" y2="100%">
      <stop offset="0%" stop-color="#7E57C2"/>
      <stop offset="100%" stop-color="#5E35B1"/>
    </linearGradient>
    <linearGradient id="eppGrad" x1="0%" y1="0%" x2="0%" y2="100%">
      <stop offset="0%" stop-color="#1E88E5"/>
      <stop offset="100%" stop-color="#1565C0"/>
    </linearGradient>
    <linearGradient id="modelGrad" x1="0%" y1="0%" x2="0%" y2="100%">
      <stop offset="0%" stop-color="#43A047"/>
      <stop offset="100%" stop-color="#2E7D32"/>
    </linearGradient>
    <linearGradient id="gpuGrad" x1="0%" y1="0%" x2="0%" y2="100%">
      <stop offset="0%" stop-color="#76B900"/>
      <stop offset="100%" stop-color="#558B2F"/>
    </linearGradient>
    <linearGradient id="storageGrad" x1="0%" y1="0%" x2="0%" y2="100%">
      <stop offset="0%" stop-color="#FF8F00"/>
      <stop offset="100%" stop-color="#E65100"/>
    </linearGradient>
    <linearGradient id="kserveGrad" x1="0%" y1="0%" x2="0%" y2="100%">
      <stop offset="0%" stop-color="#EF5350"/>
      <stop offset="100%" stop-color="#C62828"/>
    </linearGradient>

    <pattern id="gridPattern" width="40" height="40" patternUnits="userSpaceOnUse">
      <path d="M 40 0 L 0 0 0 40" fill="none" stroke="#E8EBF0" stroke-width="0.5"/>
    </pattern>
  </defs>

  <!-- Background -->
  <rect width="1200" height="920" fill="url(#bgGrad)"/>
  <rect width="1200" height="920" fill="url(#gridPattern)" opacity="0.4"/>

  <!-- Title -->
  <text x="600" y="38" text-anchor="middle" font-size="22" font-weight="700" fill="#1A237E" letter-spacing="0.5">Inference Traffic Flow</text>
  <text x="600" y="58" text-anchor="middle" font-size="13" fill="#455A64" letter-spacing="0.3">Private AI Code Assistant on Red Hat OpenShift</text>

  <!-- Cluster Boundary -->
  <rect x="30" y="74" width="1140" height="828" rx="16" fill="url(#clusterGrad)" stroke="#B0BEC5" stroke-width="1.5" filter="url(#shadow)"/>
  <rect x="30" y="74" width="1140" height="36" rx="16" fill="#EE0000" opacity="0.92"/>
  <rect x="30" y="94" width="1140" height="16" fill="#EE0000" opacity="0.92"/>
  <text x="600" y="96" text-anchor="middle" font-size="13" font-weight="600" fill="#FFFFFF" letter-spacing="1.2">OPENSHIFT CLUSTER &#8212; INTERNAL NETWORK BOUNDARY</text>
  <text x="1145" y="96" text-anchor="end" font-size="9" fill="#FFCDD2">All traffic stays inside</text>

  <!-- ====== LAYER 1: DEVELOPER IDE ====== -->
  <rect x="60" y="126" width="500" height="190" rx="12" fill="#FFFFFF" stroke="#0288D1" stroke-width="1.2" filter="url(#shadowLight)"/>
  <rect x="60" y="126" width="500" height="28" rx="12" fill="url(#devGrad)"/>
  <rect x="60" y="142" width="500" height="12" fill="url(#devGrad)"/>
  <text x="310" y="145" text-anchor="middle" font-size="12" font-weight="600" fill="#FFFFFF" letter-spacing="0.5">DEVELOPER WORKSPACE &#8212; OpenShift Dev Spaces</text>

  <!-- IDE Box -->
  <rect x="80" y="170" width="460" height="50" rx="8" fill="#E3F2FD" stroke="#90CAF9" stroke-width="1"/>
  <text x="310" y="191" text-anchor="middle" font-size="13" font-weight="600" fill="#0D47A1">VS Code for the Web (Browser-Based IDE)</text>
  <text x="310" y="207" text-anchor="middle" font-size="10" fill="#546E7A">Runs inside a workspace pod with persistent storage and terminal access</text>

  <!-- Extension Boxes -->
  <rect x="84" y="232" width="136" height="70" rx="8" fill="url(#extGrad)" filter="url(#shadowLight)"/>
  <text x="152" y="260" text-anchor="middle" font-size="12" font-weight="600" fill="#FFFFFF">Continue</text>
  <text x="152" y="275" text-anchor="middle" font-size="9" fill="#E0F2F1">Chat + Autocomplete</text>
  <text x="152" y="289" text-anchor="middle" font-size="9" fill="#E0F2F1">Tab Completions</text>

  <rect x="242" y="232" width="136" height="70" rx="8" fill="url(#extGrad)" filter="url(#shadowLight)"/>
  <text x="310" y="260" text-anchor="middle" font-size="12" font-weight="600" fill="#FFFFFF">Cline</text>
  <text x="310" y="275" text-anchor="middle" font-size="9" fill="#E0F2F1">Autonomous Agent</text>
  <text x="310" y="289" text-anchor="middle" font-size="9" fill="#E0F2F1">Tool Calling</text>

  <rect x="400" y="232" width="136" height="70" rx="8" fill="url(#extGrad)" filter="url(#shadowLight)"/>
  <text x="468" y="260" text-anchor="middle" font-size="12" font-weight="600" fill="#FFFFFF">Roo Code</text>
  <text x="468" y="275" text-anchor="middle" font-size="9" fill="#E0F2F1">Multi-Mode Agent</text>
  <text x="468" y="289" text-anchor="middle" font-size="9" fill="#E0F2F1">Architect / Code / Debug</text>

  <!-- ====== PROTOCOL LABEL ====== -->
  <line x1="310" y1="316" x2="310" y2="370" stroke="#1565C0" stroke-width="2.5" marker-end="url(#arrowBlue)"/>
  <rect x="215" y="324" width="190" height="28" rx="6" fill="#E8EAF6" stroke="#7986CB" stroke-width="0.8"/>
  <text x="310" y="342" text-anchor="middle" font-size="10" font-weight="600" fill="#283593">OpenAI-Compatible API (HTTPS)</text>
  <text x="310" y="354" text-anchor="middle" font-size="8" fill="#5C6BC0">POST /v1/chat/completions</text>

  <!-- DNS callout -->
  <rect x="590" y="126" width="264" height="94" rx="10" fill="#FFF8E1" stroke="#FFB74D" stroke-width="1" filter="url(#shadowLight)"/>
  <rect x="604" y="136" width="12" height="12" rx="2" fill="#FF8F00"/>
  <text x="610" y="146" text-anchor="middle" font-size="9" font-weight="700" fill="#FFFFFF">i</text>
  <text x="624" y="147" font-size="11" font-weight="700" fill="#E65100">Cluster-Internal DNS Resolution</text>
  <text x="604" y="166" font-size="10" fill="#795548">Extensions call the llm-d Gateway using</text>
  <text x="604" y="180" font-size="10" fill="#795548">Kubernetes internal DNS (*.svc.cluster.local)</text>
  <text x="604" y="198" font-size="10" font-weight="600" fill="#BF360C">Resolves to ClusterIP (pod network)</text>
  <text x="604" y="212" font-size="10" font-weight="600" fill="#BF360C">Traffic never leaves the cluster</text>
  <line x1="560" y1="280" x2="590" y2="200" stroke="#FFB74D" stroke-width="1" stroke-dasharray="4,3"/>

  <!-- ====== LAYER 2: GATEWAY ====== -->
  <rect x="120" y="376" width="380" height="94" rx="12" fill="#FFFFFF" stroke="#7E57C2" stroke-width="1.2" filter="url(#shadowLight)"/>
  <rect x="120" y="376" width="380" height="26" rx="12" fill="url(#gwGrad)"/>
  <rect x="120" y="390" width="380" height="12" fill="url(#gwGrad)"/>
  <text x="310" y="395" text-anchor="middle" font-size="11" font-weight="600" fill="#FFFFFF" letter-spacing="0.5">GATEWAY &#8212; Service Mesh (Istio / Envoy Proxy)</text>
  <text x="310" y="422" text-anchor="middle" font-size="10" fill="#4A148C">Kubernetes Gateway API + HTTPRoute</text>
  <text x="310" y="438" text-anchor="middle" font-size="10" fill="#4A148C">TLS termination and request routing rules</text>
  <text x="310" y="456" text-anchor="middle" font-size="10" font-weight="600" fill="#6A1B9A">Envoy ext_proc filter invokes EPP for endpoint selection</text>

  <!-- Arrow: Gateway to EPP -->
  <line x1="310" y1="470" x2="310" y2="518" stroke="#6A1B9A" stroke-width="2.5" marker-end="url(#arrowPurple)"/>
  <rect x="234" y="478" width="152" height="20" rx="5" fill="#F3E5F5" stroke="#CE93D8" stroke-width="0.8"/>
  <text x="310" y="492" text-anchor="middle" font-size="9" font-weight="600" fill="#6A1B9A">gRPC ext_proc call</text>

  <!-- ====== LAYER 3: EPP ====== -->
  <rect x="80" y="524" width="460" height="120" rx="12" fill="#FFFFFF" stroke="#1E88E5" stroke-width="1.2" filter="url(#shadowLight)"/>
  <rect x="80" y="524" width="460" height="26" rx="12" fill="url(#eppGrad)"/>
  <rect x="80" y="538" width="460" height="12" fill="url(#eppGrad)"/>
  <text x="310" y="542" text-anchor="middle" font-size="11" font-weight="600" fill="#FFFFFF" letter-spacing="0.5">llm-d ENDPOINT PICKER (EPP) &#8212; InferencePool Controller</text>

  <!-- Scoring details -->
  <rect x="100" y="564" width="200" height="66" rx="6" fill="#E3F2FD" stroke="#90CAF9" stroke-width="0.8"/>
  <text x="200" y="580" text-anchor="middle" font-size="10" font-weight="600" fill="#0D47A1">Weighted Scoring Algorithm</text>
  <text x="110" y="596" font-size="10" fill="#1565C0">Prefix Cache Affinity</text>
  <text x="282" y="596" text-anchor="end" font-size="10" font-weight="700" fill="#1565C0">x 0.4</text>
  <text x="110" y="610" font-size="10" fill="#1565C0">KV-Cache Headroom</text>
  <text x="282" y="610" text-anchor="end" font-size="10" font-weight="700" fill="#1565C0">x 0.3</text>
  <text x="110" y="624" font-size="10" fill="#1565C0">Queue Depth</text>
  <text x="282" y="624" text-anchor="end" font-size="10" font-weight="700" fill="#1565C0">x 0.3</text>

  <!-- EPP outcome -->
  <rect x="320" y="564" width="200" height="66" rx="6" fill="#E8F5E9" stroke="#A5D6A7" stroke-width="0.8"/>
  <text x="420" y="580" text-anchor="middle" font-size="10" font-weight="600" fill="#1B5E20">Intelligent Routing</text>
  <text x="420" y="598" text-anchor="middle" font-size="10" fill="#2E7D32">Scores all available</text>
  <text x="420" y="612" text-anchor="middle" font-size="10" fill="#2E7D32">model replicas and selects the</text>
  <text x="420" y="626" text-anchor="middle" font-size="10" font-weight="600" fill="#1B5E20">optimal backend per request</text>

  <!-- Arrows: EPP to Model Pods -->
  <path d="M 200 644 L 200 690" stroke="#2E7D32" stroke-width="2.5" marker-end="url(#arrowGreen)" fill="none"/>
  <path d="M 420 644 L 420 690" stroke="#2E7D32" stroke-width="2.5" marker-end="url(#arrowGreen)" fill="none"/>
  <rect x="268" y="658" width="84" height="18" rx="4" fill="#C8E6C9" stroke="#81C784" stroke-width="0.6"/>
  <text x="310" y="670" text-anchor="middle" font-size="8" font-weight="600" fill="#1B5E20">SCALE-OUT</text>

  <!-- ====== LAYER 4: MODEL SERVING ====== -->
  <!-- vLLM Pod 1 (active) -->
  <rect x="80" y="696" width="260" height="118" rx="12" fill="#FFFFFF" stroke="#43A047" stroke-width="1.2" filter="url(#shadowLight)"/>
  <rect x="80" y="696" width="260" height="24" rx="12" fill="url(#modelGrad)"/>
  <rect x="80" y="708" width="260" height="12" fill="url(#modelGrad)"/>
  <text x="210" y="712" text-anchor="middle" font-size="10" font-weight="600" fill="#FFFFFF">MODEL REPLICA 1 &#8212; vLLM (CUDA)</text>

  <rect x="96" y="730" width="100" height="36" rx="6" fill="url(#gpuGrad)" filter="url(#shadowLight)"/>
  <text x="146" y="747" text-anchor="middle" font-size="9" font-weight="700" fill="#FFFFFF">NVIDIA GPU</text>
  <text x="146" y="760" text-anchor="middle" font-size="8" fill="#F1F8E9">FP8 / FP16 / BF16</text>

  <text x="210" y="740" font-size="9" fill="#2E7D32">LLM Inference Engine</text>
  <text x="210" y="754" font-size="9" fill="#2E7D32">OpenAI-compatible API</text>
  <text x="210" y="768" font-size="9" fill="#2E7D32">Tool-call parsing</text>

  <rect x="96" y="782" width="230" height="22" rx="4" fill="url(#storageGrad)" opacity="0.9"/>
  <text x="211" y="797" text-anchor="middle" font-size="9" font-weight="600" fill="#FFFFFF">Persistent Model Cache (PVC)</text>

  <!-- vLLM Pod N (dashed = scale-out) -->
  <rect x="380" y="696" width="260" height="118" rx="12" fill="#FFFFFF" stroke="#43A047" stroke-width="1.2" stroke-dasharray="6,3" filter="url(#shadowLight)"/>
  <rect x="380" y="696" width="260" height="24" rx="12" fill="url(#modelGrad)" opacity="0.6"/>
  <rect x="380" y="708" width="260" height="12" fill="url(#modelGrad)" opacity="0.6"/>
  <text x="510" y="712" text-anchor="middle" font-size="10" font-weight="600" fill="#FFFFFF">MODEL REPLICA N &#8212; Scale-Out</text>

  <rect x="396" y="730" width="100" height="36" rx="6" fill="url(#gpuGrad)" opacity="0.7" filter="url(#shadowLight)"/>
  <text x="446" y="747" text-anchor="middle" font-size="9" font-weight="700" fill="#FFFFFF">GPU / Accel.</text>
  <text x="446" y="760" text-anchor="middle" font-size="8" fill="#F1F8E9">NVIDIA / Inferentia</text>

  <text x="510" y="740" font-size="9" fill="#558B2F" opacity="0.8">Additional replicas</text>
  <text x="510" y="754" font-size="9" fill="#558B2F" opacity="0.8">Same or different models</text>
  <text x="510" y="768" font-size="9" fill="#558B2F" opacity="0.8">Heterogeneous accelerators</text>

  <rect x="396" y="782" width="230" height="22" rx="4" fill="url(#storageGrad)" opacity="0.5"/>
  <text x="511" y="797" text-anchor="middle" font-size="9" font-weight="600" fill="#FFFFFF">Persistent Model Cache (PVC)</text>

  <!-- ====== RIGHT PANEL: KServe ====== -->
  <rect x="680" y="376" width="468" height="130" rx="12" fill="#FFFFFF" stroke="#C62828" stroke-width="1.2" filter="url(#shadowLight)"/>
  <rect x="680" y="376" width="468" height="26" rx="12" fill="url(#kserveGrad)"/>
  <rect x="680" y="390" width="468" height="12" fill="url(#kserveGrad)"/>
  <text x="914" y="395" text-anchor="middle" font-size="11" font-weight="600" fill="#FFFFFF" letter-spacing="0.4">KServe &#8212; LLMInferenceService (Declarative Model Lifecycle)</text>

  <text x="700" y="422" font-size="10" fill="#B71C1C">A single custom resource (CR) automatically provisions:</text>

  <rect x="700" y="432" width="120" height="24" rx="5" fill="#FFEBEE" stroke="#EF9A9A" stroke-width="0.6"/>
  <text x="760" y="448" text-anchor="middle" font-size="9" font-weight="600" fill="#C62828">Model Deployment</text>
  <rect x="830" y="432" width="120" height="24" rx="5" fill="#FFEBEE" stroke="#EF9A9A" stroke-width="0.6"/>
  <text x="890" y="448" text-anchor="middle" font-size="9" font-weight="600" fill="#C62828">Workload Service</text>
  <rect x="960" y="432" width="120" height="24" rx="5" fill="#FFEBEE" stroke="#EF9A9A" stroke-width="0.6"/>
  <text x="1020" y="448" text-anchor="middle" font-size="9" font-weight="600" fill="#C62828">InferencePool</text>

  <rect x="700" y="464" width="120" height="24" rx="5" fill="#FFEBEE" stroke="#EF9A9A" stroke-width="0.6"/>
  <text x="760" y="480" text-anchor="middle" font-size="9" font-weight="600" fill="#C62828">EPP Instance</text>
  <rect x="830" y="464" width="120" height="24" rx="5" fill="#FFEBEE" stroke="#EF9A9A" stroke-width="0.6"/>
  <text x="890" y="480" text-anchor="middle" font-size="9" font-weight="600" fill="#C62828">HTTPRoute</text>
  <rect x="960" y="464" width="120" height="24" rx="5" fill="#FFEBEE" stroke="#EF9A9A" stroke-width="0.6"/>
  <text x="1020" y="480" text-anchor="middle" font-size="9" font-weight="600" fill="#C62828">Gateway Binding</text>

  <!-- ====== RIGHT PANEL: KEY PROPERTIES ====== -->
  <rect x="680" y="528" width="468" height="286" rx="12" fill="#FFFFFF" stroke="#546E7A" stroke-width="1" filter="url(#shadowLight)"/>
  <rect x="680" y="528" width="468" height="26" rx="12" fill="#37474F"/>
  <rect x="680" y="542" width="468" height="12" fill="#37474F"/>
  <text x="914" y="545" text-anchor="middle" font-size="11" font-weight="600" fill="#FFFFFF" letter-spacing="0.5">KEY ARCHITECTURE PROPERTIES</text>

  <!-- Property 1: Security -->
  <rect x="700" y="564" width="16" height="16" rx="8" fill="#2E7D32"/>
  <text x="708" y="575" text-anchor="middle" font-size="10" font-weight="700" fill="#FFFFFF">1</text>
  <text x="724" y="576" font-size="10" font-weight="600" fill="#1B5E20">Zero External Egress</text>
  <text x="724" y="590" font-size="9" fill="#546E7A">Kubernetes internal DNS resolves to ClusterIP. Inference traffic</text>
  <text x="724" y="602" font-size="9" fill="#546E7A">never crosses the cluster boundary or reaches the public internet.</text>

  <!-- Property 2: Intelligent Routing -->
  <rect x="700" y="616" width="16" height="16" rx="8" fill="#1565C0"/>
  <text x="708" y="627" text-anchor="middle" font-size="10" font-weight="700" fill="#FFFFFF">2</text>
  <text x="724" y="628" font-size="10" font-weight="600" fill="#0D47A1">Intelligent Scale-Out Routing</text>
  <text x="724" y="642" font-size="9" fill="#546E7A">EPP uses real-time metrics (KV-cache, prefix-cache, queue depth)</text>
  <text x="724" y="654" font-size="9" fill="#546E7A">to route each request to the optimal replica. No round-robin.</text>

  <!-- Property 3: Multi-Model -->
  <rect x="700" y="668" width="16" height="16" rx="8" fill="#6A1B9A"/>
  <text x="708" y="679" text-anchor="middle" font-size="10" font-weight="700" fill="#FFFFFF">3</text>
  <text x="724" y="680" font-size="10" font-weight="600" fill="#4A148C">Multi-Model, Multi-Accelerator</text>
  <text x="724" y="694" font-size="9" fill="#546E7A">Different models on different accelerators (NVIDIA, Inferentia, Trainium)</text>
  <text x="724" y="706" font-size="9" fill="#546E7A">served behind a single gateway endpoint, transparent to clients.</text>

  <!-- Property 4: TLS -->
  <rect x="700" y="720" width="16" height="16" rx="8" fill="#E65100"/>
  <text x="708" y="731" text-anchor="middle" font-size="10" font-weight="700" fill="#FFFFFF">4</text>
  <text x="724" y="732" font-size="10" font-weight="600" fill="#E65100">End-to-End TLS</text>
  <text x="724" y="746" font-size="9" fill="#546E7A">TLS termination at Envoy Gateway. Mutual TLS available via</text>
  <text x="724" y="758" font-size="9" fill="#546E7A">Service Mesh for encrypted pod-to-pod communication.</text>

  <!-- Property 5: Declarative -->
  <rect x="700" y="772" width="16" height="16" rx="8" fill="#C62828"/>
  <text x="708" y="783" text-anchor="middle" font-size="10" font-weight="700" fill="#FFFFFF">5</text>
  <text x="724" y="784" font-size="10" font-weight="600" fill="#C62828">Fully Declarative (GitOps-Ready)</text>
  <text x="724" y="798" font-size="9" fill="#546E7A">One LLMInferenceService CR creates the entire serving stack:</text>
  <text x="724" y="810" font-size="9" fill="#546E7A">deployment, service, routing, EPP, and gateway binding.</text>

  <!-- ====== STEP NUMBERS (left margin) ====== -->
  <circle cx="46" cy="268" r="14" fill="#1565C0"/>
  <text x="46" y="273" text-anchor="middle" font-size="11" font-weight="700" fill="#FFFFFF">1</text>
  <circle cx="46" cy="423" r="14" fill="#6A1B9A"/>
  <text x="46" y="428" text-anchor="middle" font-size="11" font-weight="700" fill="#FFFFFF">2</text>
  <circle cx="46" cy="584" r="14" fill="#1E88E5"/>
  <text x="46" y="589" text-anchor="middle" font-size="11" font-weight="700" fill="#FFFFFF">3</text>
  <circle cx="46" cy="755" r="14" fill="#2E7D32"/>
  <text x="46" y="760" text-anchor="middle" font-size="11" font-weight="700" fill="#FFFFFF">4</text>

  <!-- ====== FOOTER: REQUEST FLOW LEGEND ====== -->
  <rect x="60" y="838" width="1098" height="54" rx="8" fill="#ECEFF1" stroke="#CFD8DC" stroke-width="0.8"/>
  <text x="80" y="857" font-size="11" fill="#37474F" font-weight="700">Request Flow:</text>

  <circle cx="200" cy="854" r="8" fill="#1565C0"/>
  <text x="200" y="858" text-anchor="middle" font-size="8" font-weight="700" fill="#FFF">1</text>
  <text x="214" y="858" font-size="9" fill="#546E7A">Extension sends HTTPS API request</text>

  <circle cx="430" cy="854" r="8" fill="#6A1B9A"/>
  <text x="430" y="858" text-anchor="middle" font-size="8" font-weight="700" fill="#FFF">2</text>
  <text x="444" y="858" font-size="9" fill="#546E7A">Gateway terminates TLS, invokes EPP</text>

  <circle cx="660" cy="854" r="8" fill="#1E88E5"/>
  <text x="660" y="858" text-anchor="middle" font-size="8" font-weight="700" fill="#FFF">3</text>
  <text x="674" y="858" font-size="9" fill="#546E7A">EPP scores replicas, selects optimal</text>

  <circle cx="900" cy="854" r="8" fill="#2E7D32"/>
  <text x="900" y="858" text-anchor="middle" font-size="8" font-weight="700" fill="#FFF">4</text>
  <text x="914" y="858" font-size="9" fill="#546E7A">Envoy routes to selected vLLM pod</text>

  <text x="600" y="880" text-anchor="middle" font-size="9" fill="#90A4AE">Red Hat OpenShift AI &#183; KServe &#183; llm-d &#183; vLLM &#183; OpenShift Dev Spaces &#183; Service Mesh</text>

</svg>
